Coordinates
version=1
nRows=17
nColumns=34
inDegrees=yes

Units are S.I. units (second, meters, Newtons, ...)
If the header above contains a line with 'inDegrees', this indicates whether rotational values are in degrees (yes) or radians (no).

endheader
time	pelvis_tilt	pelvis_list	pelvis_rotation	pelvis_tx	pelvis_ty	pelvis_tz	hip_flexion_r	hip_adduction_r	hip_rotation_r	knee_angle_r	ankle_angle_r	subtalar_angle_r	mtp_angle_r	hip_flexion_l	hip_adduction_l	hip_rotation_l	knee_angle_l	ankle_angle_l	subtalar_angle_l	mtp_angle_l	lumbar_extension	lumbar_bending	lumbar_rotation	arm_flex_r	arm_add_r	arm_rot_r	elbow_flex_r	pro_sup_r	arm_flex_l	arm_add_l	arm_rot_l	elbow_flex_l	pro_sup_l
      0.00000000	    -13.89221776	      0.28563643	      5.29031400	     -6.16571394	      0.95424358	     -1.02595305	     30.49438250	      0.38797373	      2.36362745	     21.90695017	      9.69070503	    -12.71335520	      0.00000000	     27.93233623	     -1.03567413	      4.46648939	     45.81451496	      2.86775691	    -17.94766774	      0.00000000	    -21.72638167	      6.96313535	      3.01498664	     17.29026393	    -14.34153196	     -6.57441805	     45.62789939	     99.49231635	      2.12416879	     -5.50961930	      0.92654260	     33.70379582	     77.61955520
      0.01666670	    -16.01579971	      0.61158195	      4.23305965	     -6.17290145	      0.94458021	     -1.02445689	     34.34030694	      1.00056946	      4.15219787	     25.73358458	     11.93335567	    -12.35682415	      0.00000000	     35.01294536	     -0.10842495	      5.13249234	     57.02464690	      6.39105224	    -14.23450468	      0.00000000	    -20.21364809	      6.85647419	      2.65805196	     17.98666188	    -13.07671151	     -9.55247245	     45.71182700	     98.77374733	      2.77597768	     -4.55101044	     -2.64563108	     34.01283494	     77.91366772
      0.03333330	    -18.10507753	      0.66786469	      2.94552375	     -6.17718245	      0.93592769	     -1.02164381	     37.38351634	      1.58097412	      3.91475346	     26.86618661	     11.57878314	    -13.54936487	      0.00000000	     39.61163414	      0.00903526	      5.01847119	     64.45389941	      9.73774588	    -13.05666974	      0.00000000	    -18.52370420	      6.49727910	      3.39272178	     17.43130065	    -13.30219501	    -12.09113931	     47.51587466	     98.38072922	      2.74076475	     -3.72375810	     -6.32862836	     36.75319931	     79.37464974
      0.05000000	    -19.61648525	     -0.25220880	      2.24065529	     -6.18180243	      0.93305183	     -1.01927332	     39.79691581	      2.83619314	      3.80521997	     27.69685813	     11.58239325	    -13.53595629	      0.00000000	     42.88388862	     -0.41393648	      5.79578163	     70.73887028	     12.37522747	    -12.19706241	      0.00000000	    -17.58189547	      7.60714682	      4.18673764	     17.22646014	    -14.73049922	    -12.83567014	     47.95410227	     98.53504848	      3.11742498	     -3.13742945	     -7.32274392	     39.52084624	     81.27644539
      0.06666670	    -20.90425999	     -0.56558366	      1.80659210	     -6.18476606	      0.93591186	     -1.01699936	     41.10511338	      3.65183046	      4.37491697	     27.07136768	     10.67587261	    -14.65834529	      0.00000000	     44.95243376	     -0.54237689	      6.12530920	     75.22545494	     14.24210861	    -11.23676334	      0.00000000	    -17.29821891	      8.14589912	      4.63367840	     17.08860034	    -15.80482530	    -13.56530452	     48.10207138	     99.02421929	      3.80370866	     -2.78267636	     -7.02339047	     42.37568273	     84.61225630
      0.08333330	    -20.94965120	     -0.67485920	      1.65437025	     -6.18532796	      0.94119124	     -1.01618465	     40.28149254	      3.90317560	      4.60100885	     25.27024598	      9.76108850	    -14.68624024	      0.00000000	     44.44436532	     -0.43462442	      6.37806375	     77.98881184	     14.93813390	     -9.94876362	      0.00000000	    -18.31415276	      8.51100210	      4.99055997	     17.06958117	    -16.92346866	    -14.50004812	     47.01743994	     99.59753854	      5.05381232	     -2.33979346	     -5.85573473	     44.73053662	     87.99296142
      0.10000000	    -21.17504824	     -0.63206715	      1.70856266	     -6.18300529	      0.94162888	     -1.01583783	     39.53290702	      3.84165288	      4.85638060	     23.60356898	      8.95372604	    -14.65624029	      0.00000000	     43.33821329	     -0.10836017	      6.74301418	     79.81606718	     14.67239807	     -9.39884502	      0.00000000	    -18.89469106	      8.78311308	      5.06030599	     16.27952365	    -17.72245228	    -16.11226780	     46.06603001	    100.83175001	      5.80245654	     -1.93240810	     -4.59763978	     47.42996356	     94.33172545
      0.11666670	    -21.62778498	     -0.56500927	      1.45478777	     -6.17872261	      0.93668173	     -1.01398729	     39.30999275	      4.01439105	      5.29617167	     22.60130418	      8.83636468	    -14.56884822	      0.00000000	     41.96971025	     -0.23180852	      6.70537247	     81.01671267	     15.05337140	     -8.67869225	      0.00000000	    -18.82520819	      8.72980738	      5.39318080	     14.91025536	    -18.60373475	    -16.91283656	     44.69857313	    101.10823081	      6.34032976	     -1.58472099	     -4.22661512	     49.83979302	     95.72618096
      0.13333330	    -22.23351261	     -0.75587025	      1.41823257	     -6.17451031	      0.93269139	     -1.01207980	     39.61302362	      4.28948117	      5.32543063	     22.39885599	      8.50581310	    -14.88029698	      0.00000000	     40.78672785	     -0.49793563	      6.90794247	     81.59709982	     14.92617820	     -8.22727689	      0.00000000	    -18.47350118	      9.04557663	      5.51534546	     13.32338684	    -19.35542142	    -17.65694534	     43.31837444	    101.20251359	      6.62198831	     -1.15412720	     -3.52371853	     52.35934067	     96.42110041
      0.15000000	    -23.13446988	     -0.75182368	      1.21619908	     -6.17149424	      0.92937718	     -1.00954836	     40.41667829	      4.63664607	      5.89400276	     22.51032433	      8.08680104	    -16.09529306	      0.00000000	     40.18027790	     -0.84444028	      6.66893263	     81.51648640	     14.54570531	     -8.04197000	      0.00000000	    -17.70001548	      9.04866753	      5.12755474	     11.99243129	    -19.24923093	    -19.27811127	     42.16265225	    101.35409598	      6.18804519	     -1.61256195	     -1.83275611	     56.12346264	     98.19332296
      0.16666670	    -24.18557918	     -0.80278028	      0.99507694	     -6.16981497	      0.92849173	     -1.00755260	     41.44573345	      5.03264032	      6.26057588	     22.64856155	      7.63047962	    -17.15271811	      0.00000000	     40.01909154	     -1.28203080	      6.33697876	     80.91260269	     13.60866097	     -8.50091390	      0.00000000	    -16.67146158	      9.13260296	      4.99368110	     10.57014041	    -19.33762345	    -20.52570079	     40.50686806	    101.56582318	      6.40211404	     -1.68970637	     -0.61527941	     58.66097084	     99.78030799
      0.18333330	    -25.01831596	     -0.92643679	      0.76252293	     -6.16844690	      0.92889495	     -1.00603173	     42.05228496	      5.42784090	      6.37975125	     22.37681530	      7.26843912	    -17.55528753	      0.00000000	     39.37658963	     -1.85012232	      5.96343358	     79.49651892	     13.01758869	     -8.75089408	      0.00000000	    -15.98275381	      9.28885670	      4.97563592	      9.22860407	    -19.75939100	    -21.07703665	     38.79638676	    101.64769806	      7.12516450	     -1.33117641	      0.08689575	     60.39510981	    100.32694061
      0.20000000	    -25.87943221	     -0.66623234	      0.28130395	     -6.16730176	      0.92966418	     -1.00379264	     42.84046509	      5.71568165	      7.00101974	     22.38329772	      6.72612179	    -18.50555778	      0.00000000	     37.98691628	     -2.27469814	      5.11768044	     76.97192205	     13.67676725	     -9.15076174	      0.00000000	    -15.31897700	      8.90421283	      4.78606849	      8.55361132	    -19.71294551	    -21.93023947	     36.24561618	    101.74299612	      7.78405726	     -1.64038560	      1.73136979	     62.08182931	    101.34489214
      0.21666670	    -26.51996172	     -0.52694760	     -0.17422764	     -6.16548623	      0.92926234	     -1.00159256	     43.25794747	      6.07563693	      7.57966056	     22.08271840	      5.81233261	    -19.53575484	      0.00000000	     35.85407977	     -2.70072488	      4.47929526	     73.44049746	     15.25475732	     -9.18347663	      0.00000000	    -14.81973050	      8.76866522	      4.35718816	      8.27860684	    -19.60540975	    -22.77876172	     33.68289447	    101.99274674	      8.50189664	     -2.04521040	      3.40615770	     63.03683309	    103.18321098
      0.23333330	    -27.21661500	     -0.17531204	     -0.90208213	     -6.16315324	      0.92910097	     -0.99940809	     43.89284324	      6.38952742	      8.10008979	     21.91177361	      5.39705351	    -19.71147204	      0.00000000	     33.65026947	     -3.02877877	      3.40302711	     69.00506907	     16.33714044	     -9.55078557	      0.00000000	    -14.51180085	      8.27393343	      4.44816378	      7.26776960	    -19.71475921	    -23.06927320	     32.21664679	    102.08258073	      9.05772892	     -1.86565720	      3.82216868	     64.17091752	    103.76147871
      0.25000000	    -27.65555304	      0.26981168	     -1.70456148	     -6.16033568	      0.93085922	     -0.99769658	     44.16962748	      6.66028581	      8.67037981	     21.50595144	      4.43157621	    -19.99797084	      0.00000000	     31.28028763	     -3.15877614	      2.24275850	     63.83043430	     16.14596579	    -10.15238381	      0.00000000	    -14.58476999	      7.73974739	      4.30006403	      6.79725122	    -19.60082564	    -23.52183435	     30.44687160	    102.13498773	      9.59607414	     -1.98887374	      4.62734548	     65.07701103	    104.48978123
      0.26666670	    -27.85582091	      0.85128820	     -2.59156327	     -6.15764341	      0.93353470	     -0.99621369	     44.24946163	      6.83139396	      9.20069963	     21.21697121	      3.41896134	    -20.14200255	      0.00000000	     28.79521781	     -2.99922491	      1.03412261	     58.22650601	     15.05865211	    -11.11384224	      0.00000000	    -15.06511194	      7.15288735	      3.98191025	      6.66749013	    -19.35276170	    -24.05090689	     28.68924230	    102.16856775	     10.18462185	     -2.10919201	      5.24159883	     65.38624959	    105.24196417
